<svg width="512" height="512" xmlns="http://www.w3.org/2000/svg" preserveAspectRatio="xMidYMid meet" version="1.0">
 <metadata>Created by potrace 1.16, written by merge dao</metadata>

 <g>
  <title>Layer 1</title>
  <path fill="#0082fb" id="svg_2" d="m146.10001,86.49999c-67.8,9.7 -122.00001,57.00001 -141.30001,123.50001c-7.8,26.89999 -7.8,65.10001 0,92c13.6,46.79999 43.4,83.39999 86.4,106c25.39999,13.39999 54.2,19.79999 84.3,18.70001c8.3,-0.30002 19,-1.30002 23.90001,-2.30002l8.89999,-1.69998l-7.39999,-6.5c-37.90001,-33.60001 -61.20001,-75.20001 -70.5,-125.70001c-2.70001,-14.39999 -2.70001,-54.60001 0,-69c9.29999,-50.5 32.59999,-92.10001 70.5,-125.7l7.39999,-6.5l-8.89999,-1.8c-12.40001,-2.4 -39.8,-2.9 -53.3,-1z"/>
  <path fill="#0082fb" id="svg_3" d="m320.80002,86.09999c-3.70001,0.5 -9.30002,1.5 -12.40002,2.10001l-5.59998,1.3l9.29999,8.3c38.70001,34.1 63.39999,81.49999 69.89999,134.4c1.70001,13.10001 0.80002,46.2 -1.5,58.8c-9,49.70001 -32.60001,91.70001 -70.39999,125.20001l-7.39999,6.5l8.89999,1.69998c20.29999,3.89999 50.79999,2.89999 71.70001,-2.5c60.39999,-15.39999 108.39999,-63.19998 123.69998,-122.89999c6.79999,-26.80002 6.79999,-59.2 0,-86c-5.10001,-19.8 -15.89999,-42.60001 -27.89999,-58.5c-24.29999,-32.3 -57.60001,-54.7 -95.79999,-64.40001c-17.60001,-4.5 -45,-6.2 -62.5,-4z"/>
  <path fill="#0164e0" id="svg_4" d="m246.40001,113.89999c-40.10001,26.5 -66.70001,68.5 -74.5,117.60001c-1.70001,10.3 -1.70001,38.69998 0,49c7.89999,49.89999 36.2,93.70001 76.89999,119.20001l7.2,4.5l7.30002,-4.5c40.59998,-25.5 68.89999,-69.30002 76.79999,-119.20001c1.70001,-10.30002 1.70001,-38.7 0,-49c-6.60001,-41.90001 -26.89999,-78.60001 -58,-105.2c-7,-6 -24.60001,-18.3 -26.10001,-18.3c-0.39999,0 -4.7,2.7 -9.59999,5.9z"/>
 </g>
</svg>